<svg width="183" height="64" viewBox="0 0 183 64" xmlns="http://www.w3.org/2000/svg"><title>Group 2</title><defs><linearGradient x1="0%" y1="50%" y2="50%" id="a"><stop stop-color="#FAAE17" offset="0%"/><stop stop-color="#963A20" offset="100%"/></linearGradient><linearGradient x1="-2462.454%" y1="847.682%" y2="50%" id="b"><stop stop-color="#FAAE17" offset="0%"/><stop stop-color="#963A20" offset="100%"/></linearGradient></defs><g stroke-width="2" fill="none" fill-rule="evenodd"><path d="M175 9H2a1 1 0 0 0-1 1v52a1 1 0 0 0 1 1h172a1 1 0 0 0 1-1V9z" stroke="url(#a)"/><path d="M1.293 8.121A1 1 0 0 0 1 8.828V62a1 1 0 0 0 1 1h172.172a1 1 0 0 0 .707-.293l6.828-6.828a1 1 0 0 0 .293-.707V2a1 1 0 0 0-1-1H8.828a1 1 0 0 0-.707.293L1.293 8.12z" stroke="url(#a)"/><path d="M181.5 2l-7 7" stroke="url(#b)" stroke-linecap="round" stroke-linejoin="round"/></g></svg>
